<svg xmlns="http://www.w3.org/2000/svg" viewBox="0 0 100 100" width="100" height="100">
  <defs>
    <linearGradient id="skyGradient" x1="0%" y1="0%" x2="0%" y2="100%">
      <stop offset="0%" style="stop-color:#87CEEB;stop-opacity:1" />
      <stop offset="100%" style="stop-color:#4A90E2;stop-opacity:1" />
    </linearGradient>
  </defs>
  
  <!-- Background Sky -->
  <rect width="100" height="100" fill="url(#skyGradient)" rx="15"/>
  
  <!-- Sun -->
  <circle cx="75" cy="25" r="12" fill="#FFD700"/>
  
  <!-- Palm Tree Trunk -->
  <rect x="25" y="45" width="6" height="30" fill="#8B4513" rx="2"/>
  
  <!-- Palm Leaves -->
  <ellipse cx="28" cy="40" rx="15" ry="8" fill="#228B22" transform="rotate(-30 28 40)"/>
  <ellipse cx="28" cy="40" rx="15" ry="8" fill="#228B22" transform="rotate(30 28 40)"/>
  <ellipse cx="28" cy="38" rx="12" ry="8" fill="#32CD32"/>
  
  <!-- Beach -->
  <ellipse cx="50" cy="85" rx="45" ry="12" fill="#F4A460"/>
  
  <!-- Waves -->
  <path d="M 5 70 Q 15 65 25 70 T 45 70 T 65 70 T 85 70 T 105 70" 
        stroke="#4169E1" stroke-width="2" fill="none" opacity="0.6"/>
  <path d="M 0 75 Q 10 72 20 75 T 40 75 T 60 75 T 80 75 T 100 75" 
        stroke="#4169E1" stroke-width="2" fill="none" opacity="0.6"/>
</svg>